<?xml version="1.0" encoding="UTF-8"?>
<svg xmlns="http://www.w3.org/2000/svg" version="1.1" viewBox="0 0 300 100">
  <defs>
    <style>
      .cls-1 {
        fill: #f7f6f6;
      }

      .cls-2 {
        stroke: #fff;
      }

      .cls-2, .cls-3, .cls-4, .cls-5 {
        fill: none;
        stroke-miterlimit: 10;
      }

      .cls-3 {
        stroke-width: 2px;
      }

      .cls-3, .cls-4, .cls-5 {
        stroke: #e62484;
      }

      .cls-4 {
        stroke-width: 1.5px;
      }

      .cls-6 {
        fill: #e62484;
      }

      .cls-7 {
        fill: #3d3d3d;
      }

      .cls-8 {
        fill: #464646;
      }

      .cls-9 {
        fill: #71706f;
      }
    </style>
  </defs>
  <!-- Generator: Adobe Illustrator 28.7.9, SVG Export Plug-In . SVG Version: 1.2.0 Build 218)  -->
  <g>
    <g id="Objects">
      <g>
        <path class="cls-9" d="M274.68,32.95c-.57.54-1.18,1.04-1.83,1.5.01,0,.03.01.05.02.04.02.07.04.11.07.59-.49,1.14-1.03,1.67-1.59Z"/>
        <path class="cls-6" d="M260.55,84.14c.05-.15.09-.3.09-.46v-1.46s0-1.72,0-1.72v-.15c0-.19-.04-.37-.11-.55-.06-.17-.16-.33-.29-.49,0,0,0,0,0,0h0s-.05-.09-.09-.13l-.67-.67c-.17-.17-.17-.43,0-.6.62-.62.64-1.61.07-2.27l-.08-.1c-.17-.17-.17-.43,0-.59l.68-.67c.3-.32.47-.74.47-1.17v-1.57c0-.29-.08-.56-.21-.79l-1.35-2.51c-.04-.06-.04-.14-.04-.19v-2.15c-.44-.2-.85-.43-1.24-.69v2.84c0,.28.07.56.2.79l1.35,2.51c.04.06.04.14.04.19v1.57c0,.11-.04.22-.11.3l-.67.66c-.31.31-.49.73-.49,1.17,0,.41.15.79.41,1.09l.08.1c.17.17.17.43,0,.6-.65.65-.65,1.7,0,2.34l.22.22.11.11.33.33c.06.06.13.17.13.3v2.12s0,1.2,0,1.2h0s0,.01,0,.01h0c0,.11-.05.22-.12.29l-.15.15c-.09.09-.14.21-.21.31h0c.55-.09,1.09-.18,1.63-.29h0Z"/>
        <path class="cls-6" d="M260.01,85.58c-.17-.17-.17-.43,0-.59l.15-.15c.16-.16.25-.35.33-.56-.55.12-1.1.23-1.65.32-.21.44-.23.94-.02,1.38.45-.07.91-.15,1.35-.24l-.17-.17Z"/>
        <path class="cls-6" d="M267.51,84.13l-.17-.18c-.07-.07-.11-.17-.11-.28,0,.11.04.21.11.28l.17.18Z"/>
        <path class="cls-6" d="M262.03,96.28c.32.39.79.62,1.29.62s.98-.22,1.3-.62l2.23-2.8c.24-.29.37-.66.37-1.04v-.94c0-.11.05-.22.12-.3.53-.53.57-1.35.13-1.93l.03-.03c.31-.31.49-.73.49-1.17s-.17-.86-.49-1.17l-.22-.21.22-.22c.33-.33.47-.76.47-1.19-.56.24-1.14.46-1.71.68l-.27.27v.91l.64.64c.08.08.12.19.12.3s-.04.22-.13.3l-.88.9.73.73c.09.09.09.24-.01.34-.3.32-.47.74-.47,1.17v.94c0,.07-.01.17-.09.26l-2.23,2.81c-.08.1-.21.16-.33.16-.09,0-.22-.03-.4-.25l-2.17-2.72c-.06-.08-.09-.17-.09-.26v-.94c0-.45-.17-.87-.48-1.18-.09-.09-.09-.24,0-.33l.73-.73-.89-.91c-.17-.17-.17-.43,0-.59l.12-.12c-.48.09-.96.19-1.45.26.02-.18.06-.36.13-.53-.28.61-.18,1.35.32,1.85l.04.04c-.44.58-.39,1.4.13,1.93.08.08.12.19.12.3v.94c0,.37.13.73.36,1.03l2.17,2.72.08.1Z"/>
        <path class="cls-7" d="M267.86,84.66c.07.18.1.37.11.56,0-.19-.04-.38-.11-.56Z"/>
        <path class="cls-7" d="M268.31,75.99s0,.02-.01.03c0,0,0-.02.01-.03Z"/>
        <path class="cls-6" d="M267.23,83.57v-3.23c0-.13.07-.24.12-.29h0s.59-.59.59-.59h0s.06-.06.06-.06l.02-.02.02-.02c.25-.26.38-.59.43-.93.02-.15.02-.31,0-.46,0-.03-.01-.06-.02-.09-.02-.14-.06-.28-.12-.41-.08-.16-.16-.32-.29-.45l-.06-.06h0c-.05-.07-.06-.14-.07-.22,0,0,0-.01,0-.02,0-.02.01-.04.02-.07.01-.04.01-.09.03-.13.02-.05.03-.1.07-.14.12-.13.21-.28.28-.43.06-.13.1-.27.13-.4.03-.16.04-.32.03-.48,0-.05-.02-.1-.03-.15-.02-.12-.04-.24-.09-.36-.08-.19-.19-.36-.33-.51h0s0,0,0,0l-.55-.54-.12-.11c-.08-.08-.12-.19-.12-.3v-1.57c0-.06.02-.14.05-.2l.79-1.46h0s.55-1.02.55-1.02h0s.02-.03.02-.03c.12-.25.19-.51.19-.77v-2.87c-.38.27-.8.5-1.24.71v2.16c0,.06-.02.14-.05.2l-1.36,2.52c-.05.09-.07.18-.1.28-.05.16-.09.33-.09.49v1.57c0,.45.17.86.49,1.18l.66.65c.16.17.16.44-.01.62-.43.43-.54,1.03-.41,1.58h0c.03.12.07.23.12.34.07.15.15.3.28.42,0,0,0,0,0,0l.05.04c.05.07.07.16.08.24,0,.02,0,.05,0,.07,0,.09-.04.18-.1.25l-.7.69c-.31.32-.47.73-.47,1.16v2.26s.01,0,.02,0c0,0-.01,0-.02,0v1.08c0,.27.09.53.2.76-.06-.13-.1-.26-.13-.4.39-.15.78-.3,1.17-.46Z"/>
        <path class="cls-6" d="M278.69,40.83c-.19-.28-.38-.56-.58-.83-.09-.12-.18-.23-.28-.35-.18-.22-.36-.43-.55-.64-.09-.1-.18-.2-.28-.3-.27-.28-.54-.54-.83-.79-.02-.01-.03-.03-.05-.05-.32-.27-.65-.53-.98-.78-.08-.06-.16-.11-.24-.17-.24-.16-.48-.32-.73-.47.05.04.09.09.13.13.35.35.65.68.91,1.01l.04.05c.25.3.49.63.75,1,.07.1.13.2.2.3l.04.07c.17.26.32.52.47.78l.05.08c.06.11.13.22.19.34.17.33.33.66.48,1,.87,1.97,1.31,4.06,1.31,6.21,0,5.25-2.7,10.15-7.1,12.99-.02,1.38-.61,2.64-1.57,3.69v3.94c0,.2-.03.4-.07.59-.05.2-.11.39-.2.59-.02.06-.04.11-.06.17l-.38.7.06-.11-.95,1.75h0v1.03l.43.42c.93.95,1.08,2.41.43,3.52.08.14.15.28.21.43.11.3.18.61.19.92.02.47-.07.95-.27,1.38-.04.08-.08.15-.13.22-.12.21-.26.4-.43.58h0s-.22.22-.22.22l-.22.22v.3c.12.11.21.24.28.38.03.07.07.14.09.23l.19,1.16v.02s.36,2.11.36,2.11c.04.27-.02.55-.18.77l-.03.04c-.04.31-.13.62-.28.91.04.26.19.51.42.67l.52.37.06.39-.38.52c-.34.47-.23,1.11.24,1.45l.53.38-.24.34c-.27.38-.19.91.2,1.19.23.16.38.41.42.68l.15.93c.04.23.16.44.33.6l2.59,2.33.09.08c.25.22.56.3.86.25.3-.05.58-.23.74-.52l.06-.11.64-1.14,1.06-1.89c.12-.2.16-.44.12-.67l-.15-.92c-.04-.27.02-.55.18-.78.27-.38.19-.91-.2-1.19l-.34-.24.38-.53c.34-.47.23-1.11-.24-1.45l-.52-.37-.06-.39.38-.52c.34-.47.23-1.11-.24-1.45l-.17-.13c-.23-.15-.37-.4-.42-.67l-.45-2.73-.09-.56c-.04-.27.03-.54.18-.77l.57-.77c.09-.13.14-.26.17-.41,0,0,0-.01,0-.02.02-.14.02-.28-.01-.41h0c-.05-.24-.18-.46-.39-.61h-.02c-.18-.14-.29-.32-.36-.51-.05-.14-.07-.3-.05-.45,0-.01,0-.03,0-.04.02-.16.07-.31.17-.45l.02-.02c.09-.13.14-.28.17-.43,0,0,0-.02,0-.03.05-.37-.09-.76-.41-.99l-.76-.54c-.23-.16-.38-.41-.42-.68l-.26-1.55c-.03-.17,0-.34.04-.51l.94-2.69c.05-.16.07-.34.04-.51l-.22-1.32-.42-2.55c1.18-1.16,1.8-2.62,1.55-4.09-.03-.2-.08-.39-.14-.57,3.83-3.12,5.94-8.12,5.08-13.32-.33-2.01-1.08-3.84-2.13-5.45Z"/>
        <path class="cls-6" d="M273.22,37.27c-.24-.23-.49-.46-.74-.68-.07-.06-.14-.12-.22-.18-.66-.53-1.36-1.01-2.11-1.42-.07-.04-.14-.07-.2-.11-.32-.17-.65-.33-.98-.47-.07-.03-.14-.06-.21-.09-.8-.33-1.64-.59-2.5-.78-.07-.01-.14-.03-.21-.04-.37-.07-.75-.13-1.14-.17-.07,0-.15-.02-.22-.03-.45-.04-.91-.07-1.37-.07s-.92.03-1.37.07c-.07,0-.14.02-.21.02-.39.04-.77.1-1.15.18-.07.01-.14.03-.21.04-.87.18-1.7.44-2.5.78-.08.03-.15.07-.23.1-.33.14-.65.3-.96.46-.07.04-.15.08-.22.12-.1.06-.2.12-.3.18,1.93.82,4.02,1.29,6.19,1.32.31-.04.63-.06.96-.06,2.57,0,4.65,1.34,4.65,2.98s-2.08,2.97-4.65,2.97c-1.73,0-3.23-.62-4.02-1.52-2.5-.31-4.9-1.09-7.08-2.27-.21.27-.42.54-.62.82-.04.06-.09.13-.13.2-.2.31-.4.63-.58.95-.03.05-.06.1-.09.15-.2.37-.39.75-.55,1.14-.73,1.71-1.14,3.6-1.14,5.58,0,1.38.21,2.71.58,3.97,1.04,3.56,3.42,6.54,6.57,8.35-.03.19-.05.39-.05.59,0,1.09.45,2.1,1.21,2.93,1.28,1.4,3.44,2.32,5.89,2.32,3.92,0,7.1-2.35,7.1-5.25,0-.2-.02-.39-.05-.59,4.27-2.45,7.15-7.04,7.15-12.32,0-2.03-.43-3.96-1.2-5.71-.14-.31-.29-.62-.44-.92-.07-.13-.14-.26-.22-.38-.14-.24-.28-.48-.44-.72-.07-.11-.15-.23-.22-.34-.22-.32-.45-.63-.69-.92-.01-.02-.02-.03-.04-.05-.27-.32-.55-.63-.84-.93-.07-.07-.14-.13-.21-.2Z"/>
        <path class="cls-7" d="M266.71,39.33c0-.07-.04-.13-.06-.2-.28.08-.56.14-.85.2h.91Z"/>
        <path class="cls-7" d="M252.76,37.49l.04.02c.46.25.94.47,1.42.68-.48-.21-.95-.43-1.42-.68l-.04-.02Z"/>
        <path class="cls-7" d="M257.66,39.33h.02s-.06-.01-.09-.02c.03,0,.05.01.07.02Z"/>
        <path class="cls-7" d="M263.58,37.69c-.09,0-.18-.02-.27-.02-.07,0-.13.01-.2.01.23,0,.41,0,.47,0Z"/>
        <path class="cls-6" d="M267.97,85.27s0-.03,0-.05c0-.19-.04-.38-.11-.56-.08-.19-.19-.38-.35-.53l-.17-.18c-.07-.07-.11-.17-.11-.28v-.11c-.39.16-.78.31-1.17.46.03.14.08.28.13.4.07.15.15.29.27.4l.15.17c.17.17.17.43,0,.59l-.37.37h0c.58-.21,1.15-.44,1.71-.68,0,0,0,0,.01,0Z"/>
        <path class="cls-6" d="M260.13,87.65l.51-.51v-.91l-.47-.47h0c-.45.09-.9.17-1.35.24.08.17.17.33.31.47l.22.22-.22.22c-.14.14-.25.31-.32.49-.07.17-.11.35-.13.53.49-.07.97-.17,1.45-.26Z"/>
        <path class="cls-6" d="M260.89,31.6l-15.44-7.25-1.56-.73h0s-1.07-.51-1.07-.51l-.85-.4c-.79-.37-1.63-.55-2.45-.55-2.17,0-4.24,1.23-5.22,3.32l-15.3,32.59h0s-.36.76-.36.76l-.96,2.05c-.12.26-.2.53-.28.79h0s0,0,0,0c-.1.32-.16.65-.2.97,0,.02,0,.05,0,.07-.03.31-.04.61-.02.91,0,.05,0,.1,0,.16.02.28.06.55.12.82.02.08.04.17.06.25.07.24.14.47.23.7.05.11.1.22.16.33.09.19.19.38.31.56.09.14.19.27.3.4.11.14.21.29.34.42.15.16.32.3.49.44.11.09.2.19.31.27.3.22.61.41.96.57l.36.17,2.37,1.11,2.4,1.13,13.79,6.48c.79.37,1.63.55,2.45.55,2.17,0,4.24-1.23,5.22-3.32l6.69-14.24.31-.65h0c-.44-.33-.86-.7-1.26-1.07-.06-.05-.13-.1-.18-.16l-.07.16h0l-.87,1.86h0l-6.26,13.34c-.65,1.38-2.05,2.27-3.57,2.27-.58,0-1.14-.13-1.67-.37l-16.78-7.88-2.03-.95-.12-.05c-.95-.45-1.67-1.24-2.03-2.23-.36-.99-.31-2.06.14-3.01l.47-1,16.15-34.4c.65-1.38,2.05-2.27,3.57-2.27.58,0,1.14.13,1.67.37l17.67,8.3c.42-.13.84-.24,1.27-.33l.15-.03h.07c.41-.09.83-.16,1.25-.2h.07s.04-.01.04-.01c-.26-.18-.52-.35-.81-.49Z"/>
        <path class="cls-6" d="M265.99,82.6h0s.01,0,.02,0c0,0-.01,0-.02,0Z"/>
        <path class="cls-6" d="M260.52,84.28s.01-.1.03-.14h0c-.54.11-1.08.2-1.63.29-.04.06-.09.12-.12.19.01,0,.03,0,.04,0,.55-.1,1.1-.2,1.65-.32.01,0,.02,0,.03,0Z"/>
        <path class="cls-8" d="M268.36,74.58s0,0,0,0c0,0,0,0,0,0-.08-.18-.18-.35-.32-.5l-.02-.02h0c.15.15.26.33.33.51Z"/>
        <polygon class="cls-6" points="267.53 73.57 267.37 73.41 267.37 73.41 267.48 73.53 267.53 73.57"/>
        <path class="cls-8" d="M267.98,76.98h0s.06.06.06.06c.13.13.21.29.29.45-.02-.05-.03-.09-.05-.14l-.36-.61s0,.01,0,.02c0,.08.02.16.07.22Z"/>
        <path class="cls-8" d="M267.97,76.54s-.02.09-.03.13l.34-.58s.02-.05.03-.08c0,0,0-.02.01-.03,0,0,0-.01,0-.02,0,0,0,0,0,0-.07.15-.16.31-.28.43-.04.04-.05.09-.07.14Z"/>
        <polygon class="cls-8" points="267.93 79.47 267.94 79.47 268.02 79.39 268.02 79.39 268 79.41 267.93 79.47"/>
        <polygon class="cls-8" points="268.09 69.87 268.64 68.86 268.64 68.86 268.64 68.86 268.09 69.87"/>
        <polygon class="cls-8" points="268.08 69.89 268.09 69.87 268.09 69.88 268.08 69.89"/>
        <path class="cls-6" d="M251.11,37.92c-.59-.37-1.16-.77-1.71-1.2-.3.09-.62.15-.94.15-.46,0-.92-.1-1.37-.31-1.61-.76-2.3-2.67-1.55-4.28.55-1.17,1.71-1.85,2.91-1.85.46,0,.92.1,1.37.31.4.19.75.45,1.03.76.79.8,1.68,1.52,2.64,2.16,0-.58-.08-1.16-.29-1.72-.46-1.27-1.38-2.28-2.6-2.85-.68-.32-1.4-.48-2.14-.48-1.95,0-3.74,1.14-4.57,2.9-1.18,2.52-.1,5.53,2.42,6.71.68.32,1.4.48,2.14.48.96,0,1.87-.29,2.65-.78Z"/>
        <path class="cls-8" d="M267.15,37.73s-.06-.04-.09-.07c.05.04.1.09.15.13-.02-.02-.03-.05-.06-.07Z"/>
        <path class="cls-8" d="M267.81,38.7s.02.05.03.07c0,0,0,0,0,0,0-.03-.03-.05-.04-.07Z"/>
        <path class="cls-8" d="M266.55,37.29s.04.03.06.04c-.02-.01-.03-.03-.06-.04,0,0,0,0,0,0Z"/>
        <path class="cls-3" d="M244.13,22.36c-.06-.63-.1-1.26-.1-1.91,0-10.12,8.2-18.31,18.31-18.31s18.31,8.2,18.31,18.31c0,5.87-2.76,11.09-7.06,14.45"/>
        <path class="cls-3" d="M266.55,38.29c-1.35.32-2.75.48-4.2.48-5.85,0-11.07-2.75-14.42-7.02"/>
        <path class="cls-6" d="M231.45,25.61H55.99c-9.37,0-16.97,7.6-16.97,16.97h0c0,9.37,7.6,16.97,16.97,16.97h159.39l16.06-33.94Z"/>
        <circle class="cls-1" cx="43.05" cy="42.58" r="24.06"/>
        <path class="cls-6" d="M52.21,51.87l-.84,1.09c-.29.38-.73.61-1.2.64-1.07.07-3.37-.21-6.49-2.02-4.47-2.59-7.82-6.76-9.32-11.71-1.02-3.37-.76-5.6-.46-6.62.13-.46.46-.83.89-1.03l1.25-.58c.52-.24,1.15-.06,1.45.43l3.13,4.97c.34.54.18,1.24-.36,1.58l-1.39.88c-.17.11-.25.31-.2.51.02.06.04.13.06.21.91,3.01,2.94,5.57,5.69,7.11.07.04.14.08.19.11.18.1.4.06.54-.08l1.17-1.17c.45-.45,1.17-.45,1.62,0l4.15,4.15c.41.41.45,1.06.1,1.51Z"/>
        <g>
          <path class="cls-2" d="M88.91,40.26v6.51h-.83v-3.51h-7.6v3.51h-.83v-6.51c0-3.28,1.84-4.94,4.63-4.94s4.63,1.66,4.63,4.94ZM88.08,42.52v-2.34c0-2.75-1.45-4.09-3.8-4.09s-3.8,1.35-3.8,4.09v2.34h7.6Z"/>
          <path class="cls-2" d="M92.82,44.55v-9.83h.81v9.73c0,1.09.49,1.69,1.49,1.69.32,0,.62-.08.81-.16l.06.68c-.29.11-.65.18-.97.18-1.45,0-2.21-.88-2.21-2.29Z"/>
          <path class="cls-2" d="M97.97,44.55v-9.83h.81v9.73c0,1.09.49,1.69,1.49,1.69.32,0,.62-.08.81-.16l.06.68c-.29.11-.65.18-.97.18-1.45,0-2.21-.88-2.21-2.29Z"/>
          <path class="cls-2" d="M102.04,42.54c0-2.52,1.8-4.3,4.24-4.3s4.24,1.79,4.24,4.3-1.8,4.3-4.24,4.3-4.24-1.79-4.24-4.3ZM109.69,42.54c0-2.13-1.46-3.57-3.41-3.57s-3.41,1.45-3.41,3.57,1.46,3.57,3.41,3.57,3.41-1.45,3.41-3.57Z"/>
          <path class="cls-2" d="M127.34,43.77c0,1.92-1.4,3.01-4.19,3.01h-5.07v-11.37h4.74c2.44,0,3.91,1.02,3.91,2.91,0,1.35-.76,2.23-1.9,2.6,1.61.31,2.5,1.28,2.5,2.86ZM118.91,36.12v4.53h3.88c1.97,0,3.1-.76,3.1-2.27s-1.14-2.26-3.1-2.26h-3.88ZM126.52,43.71c0-1.62-1.19-2.34-3.36-2.34h-4.24v4.69h4.24c2.18,0,3.36-.71,3.36-2.36Z"/>
          <path class="cls-2" d="M137.89,38.3v8.48h-.8v-2c-.67,1.32-1.95,2.06-3.48,2.06-2.39,0-4.19-1.77-4.19-4.3s1.8-4.3,4.19-4.3c1.51,0,2.78.75,3.46,2.03v-1.97h.81ZM137.08,42.54c0-2.13-1.46-3.57-3.41-3.57s-3.41,1.45-3.41,3.57,1.46,3.57,3.41,3.57,3.41-1.45,3.41-3.57Z"/>
          <path class="cls-2" d="M141.36,35.58c0-.36.29-.67.67-.67s.67.29.67.65-.29.67-.67.67-.67-.29-.67-.65ZM141.62,38.3h.81v8.48h-.81v-8.48Z"/>
          <path class="cls-2" d="M146.17,44.55v-9.83h.81v9.73c0,1.09.49,1.69,1.49,1.69.32,0,.62-.08.81-.16l.06.68c-.29.11-.65.18-.97.18-1.45,0-2.21-.88-2.21-2.29Z"/>
          <path class="cls-2" d="M151.32,44.55v-9.83h.81v9.73c0,1.09.49,1.69,1.49,1.69.32,0,.62-.08.81-.16l.06.68c-.29.11-.65.18-.97.18-1.45,0-2.21-.88-2.21-2.29Z"/>
          <path class="cls-2" d="M162.5,44.93l.47.54c-.75.91-1.9,1.38-3.2,1.38-2.57,0-4.39-1.79-4.39-4.3s1.72-4.3,4.13-4.3c2.26,0,3.87,1.69,3.98,3.95l-7.16,1.4c.41,1.56,1.72,2.53,3.46,2.53,1.09,0,2.06-.39,2.71-1.19ZM156.18,42.47c0,.16.02.34.03.5l6.47-1.27c-.23-1.51-1.43-2.76-3.17-2.76-1.95,0-3.33,1.46-3.33,3.53Z"/>
          <path class="cls-2" d="M173.74,38.3v8.48h-.78v-1.82c-.55,1.19-1.71,1.88-3.2,1.88-2.16,0-3.54-1.22-3.54-3.59v-4.95h.81v4.89c0,1.92,1.02,2.92,2.79,2.92,1.92,0,3.1-1.28,3.1-3.3v-4.52h.81Z"/>
          <path class="cls-2" d="M181.51,38.23v.8c-.06,0-.13-.02-.19-.02-1.88,0-3.01,1.25-3.01,3.35v4.42h-.81v-8.48h.78v1.85c.52-1.23,1.64-1.92,3.23-1.92Z"/>
          <path class="cls-2" d="M183.04,46.4c0-.23.18-.4.4-.4s.4.17.4.4-.18.41-.4.41-.4-.18-.4-.41Z"/>
          <path class="cls-2" d="M187.19,46.4c0-.23.18-.4.4-.4s.4.17.4.4-.18.41-.4.41-.4-.18-.4-.41Z"/>
          <path class="cls-2" d="M191.34,46.4c0-.23.18-.4.4-.4s.4.17.4.4-.18.41-.4.41-.4-.18-.4-.41Z"/>
        </g>
        <path class="cls-4" d="M44.35,34.75c.26-.03.53-.05.8-.05,3.68,0,6.66,2.98,6.66,6.66,0,.76-.13,1.5-.37,2.18"/>
        <path class="cls-3" d="M44.68,38.67c.13-.02.27-.02.4-.02,1.86,0,3.37,1.51,3.37,3.37,0,.39-.07.76-.19,1.11"/>
        <path class="cls-5" d="M45.15,31.43c.35-.04.7-.06,1.06-.06,4.89,0,8.86,3.96,8.86,8.86,0,1.02-.17,1.99-.49,2.9"/>
      </g>
    </g>
  </g>
</svg>