<?xml version="1.0" encoding="UTF-8"?>
<svg xmlns="http://www.w3.org/2000/svg" version="1.1" viewBox="0 0 192 192">
  <defs>
    <style>
      .cls-1, .cls-2, .cls-3 {
        fill: none;
      }

      .cls-4 {
        fill: #e62484;
      }

      .cls-5 {
        fill: #3d3d3d;
      }

      .cls-6 {
        fill: #464646;
      }

      .cls-2 {
        stroke: #fff;
        stroke-width: .5px;
      }

      .cls-2, .cls-3 {
        stroke-miterlimit: 10;
      }

      .cls-7 {
        fill: #fff;
      }

      .cls-3 {
        stroke: #e62484;
      }

      .cls-8 {
        fill: #f2f2f2;
      }
    </style>
  </defs>
  <!-- Generator: Adobe Illustrator 28.7.10, SVG Export Plug-In . SVG Version: 1.2.0 Build 236)  -->
  <g>
    <g id="Calque_1">
      <g>
        <g>
          <g>
            <path class="cls-4" d="M186.77,79.75L113.27,6.25c-4.31-4.31-11.29-4.31-15.6,0L24.16,79.75c-4.31,4.31-4.31,11.29,0,15.6l7.19,7.19c2.5-2.59,4.19-5.96,4.7-9.7-2.45-1.47-4.1-4.15-4.1-7.23,0-4.66,3.78-8.43,8.43-8.43s8.43,3.78,8.43,8.43-3.78,8.43-8.43,8.43c-1.09,0-2.13-.21-3.09-.59-.61,3.87-2.39,7.35-4.95,10.08l65.32,65.32c4.31,4.31,11.29,4.31,15.6,0l73.5-73.5c4.31-4.31,4.31-11.29,0-15.6Z"/>
            <path class="cls-4" d="M25.67,133.6v2.72c0,.24-.07.49-.18.73v.03h-.02l-.52.96h0s0,.03,0,.03l-.75,1.37c-.03.05-.05.12-.05.19v1.49c0,.11.04.21.12.29l.1.1.52.51c.14.14.24.31.32.49.05.11.06.23.08.34,0,.05.03.1.03.14,0,.15,0,.3-.03.45-.03.13-.07.26-.12.38,0,0,0,.01,0,.02s0,.02,0,.03c-.01.03-.02.05-.03.07l-.32.55s-.01.04-.01.06l.34.58s.03.09.05.13c.06.12.1.26.12.39,0,.03.01.05.01.09.02.14.02.29,0,.43-.05.32-.16.63-.41.88h-.01s-.02.03-.02.03l-.07.07-.56.54c-.04.05-.11.14-.11.28v3.16c0,.1.04.2.1.27l.16.16c.15.14.26.32.33.51.07.17.1.35.11.53,0,.01,0,.03,0,.05h-.01c0,.41-.13.81-.45,1.13l-.2.2.2.2c.3.3.47.7.47,1.12s-.16.81-.47,1.11l-.03.03c.41.54.37,1.33-.12,1.82-.07.08-.11.18-.11.29v.89c0,.36-.13.72-.35.98l-2.12,2.66c-.3.37-.75.58-1.23.58s-.91-.21-1.22-.58l-.07-.09-2.06-2.58c-.22-.28-.34-.63-.34-.98v-.89c0-.11-.04-.21-.12-.29-.5-.5-.54-1.28-.12-1.82l-.03-.04c-.39-.39-.51-.93-.39-1.44.02-.1.05-.22.09-.32.07-.16.17-.32.31-.46l.2-.2-.2-.2c-.13-.13-.22-.29-.3-.45-.2-.42-.18-.89.02-1.31-.01,0-.03,0-.04,0,.03-.07.09-.12.12-.18.06-.1.11-.21.2-.3l.14-.14c.07-.07.12-.18.12-.28h0s0-1.16,0-1.16v-2.01c0-.13-.07-.23-.13-.29l-.32-.32-.11-.11-.21-.2c-.61-.62-.61-1.61,0-2.22.17-.17.17-.41.01-.57l-.08-.09c-.26-.29-.39-.66-.39-1.04,0-.42.16-.82.46-1.12l.64-.62c.07-.07.11-.18.11-.28v-1.49c-.01-.05-.02-.12-.05-.18l-1.28-2.39c-.12-.21-.19-.47-.19-.74v-2.7c.37.25.76.47,1.17.66v2.04s.01.12.05.18l1.28,2.38c.12.22.19.47.19.75v1.49c0,.41-.16.81-.45,1.11l-.64.63c-.16.16-.16.4,0,.56l.08.09c.54.62.52,1.56-.07,2.15-.16.16-.16.41,0,.57l.64.64s.05.09.09.13c.12.14.21.3.27.46.07.16.11.34.11.52v1.77s.01,1.39.01,1.39c0,.15-.05.3-.09.44-.01.05,0,.09-.03.13,0,0-.02,0-.03,0-.08.2-.17.38-.32.53l-.14.14c-.16.15-.16.4,0,.56l.6.6v.87l-.49.49-.11.12c-.16.16-.16.4,0,.56l.84.87-.69.69c-.09.09-.09.22,0,.31.3.3.46.69.46,1.12v.89c0,.09.03.17.09.24l2.05,2.58c.17.21.29.24.37.24.12,0,.24-.06.32-.15l2.11-2.66c.07-.09.09-.18.09-.24v-.89c0-.4.16-.81.45-1.11.1-.09.1-.23.01-.32l-.7-.69.84-.86c.08-.08.12-.18.12-.28,0-.11-.05-.21-.12-.28l-.6-.6v-.87l.6-.6c.16-.16.16-.41,0-.56l-.15-.16c-.1-.1-.18-.24-.25-.38-.11-.22-.2-.45-.2-.72v-3.16c0-.4.16-.79.45-1.1l.66-.66c.07-.06.09-.14.1-.23,0-.03,0-.05,0-.07,0-.09-.02-.16-.07-.23l-.05-.04c-.12-.12-.2-.26-.27-.41-.05-.1-.09-.21-.12-.32-.13-.52-.02-1.09.39-1.5.17-.17.17-.43.01-.58l-.62-.61c-.3-.3-.46-.7-.46-1.12v-1.49c0-.16.03-.32.08-.47.03-.09.06-.18.1-.26l1.29-2.4c.03-.05.05-.12.05-.18v-2.05c.42-.2.81-.42,1.18-.68Z"/>
            <path class="cls-4" d="M25.47,137.08l-.53.96.52-.96h0Z"/>
            <path class="cls-4" d="M35.01,110.48c-.18-.27-.36-.53-.55-.79-.09-.11-.17-.22-.26-.33-.17-.21-.34-.41-.52-.6-.09-.09-.17-.19-.26-.28-.25-.26-.51-.51-.79-.75-.02-.01-.03-.03-.05-.04-.3-.26-.61-.5-.93-.74-.07-.05-.15-.1-.23-.16-.22-.16-.46-.3-.69-.44.04.04.09.08.13.12.33.34.61.65.87.95l.04.05c.24.29.47.6.71.95.07.09.13.19.19.28l.04.06c.16.24.31.49.45.74l.04.08c.06.11.12.21.18.32.16.31.32.63.46.95.82,1.87,1.24,3.85,1.24,5.89,0,4.98-2.56,9.64-6.74,12.32-.02,1.31-.57,2.51-1.49,3.5v3.74c0,.19-.03.37-.07.56-.04.19-.11.37-.19.56-.02.05-.03.11-.06.16l-.36.66.06-.11-.9,1.66h0v.98l.41.4c.88.9,1.02,2.29.41,3.34.08.13.14.27.2.41.11.28.17.58.18.87.02.45-.07.9-.26,1.31-.03.07-.08.14-.12.21-.11.2-.24.38-.41.55h0s-.21.21-.21.21l-.21.2v.28c.12.1.2.23.26.36.03.07.07.14.08.21l.18,1.1v.02s.34,2,.34,2c.04.26-.02.52-.17.73l-.03.04c-.04.3-.13.59-.27.86.04.25.18.48.4.64l.5.36.06.37-.36.5c-.32.44-.22,1.06.23,1.37l.5.36-.23.32c-.26.36-.18.87.19,1.13.22.16.36.39.4.64l.14.88c.04.22.15.42.31.57l2.46,2.21.09.08c.24.21.53.29.82.24.28-.05.55-.22.71-.49l.06-.1.61-1.08,1-1.8c.11-.19.15-.42.11-.64l-.14-.88c-.04-.26.02-.52.17-.74.26-.36.18-.87-.19-1.13l-.32-.23.36-.5c.32-.44.22-1.06-.23-1.37l-.5-.36-.06-.37.36-.5c.32-.44.22-1.06-.23-1.37l-.16-.12c-.22-.15-.36-.38-.4-.64l-.43-2.59-.09-.53c-.04-.26.03-.51.17-.73l.54-.74c.08-.12.13-.25.16-.39,0,0,0-.01,0-.02.02-.13.02-.26-.01-.39h0c-.05-.22-.17-.43-.37-.58h-.02c-.17-.13-.28-.3-.34-.48-.05-.14-.06-.28-.05-.43,0-.01,0-.03,0-.04.02-.15.07-.3.16-.43v-.02c.1-.13.15-.27.17-.41,0,0,0-.02,0-.03.05-.35-.08-.72-.39-.94l-.72-.51c-.22-.16-.36-.39-.4-.64l-.24-1.47c-.03-.16,0-.33.04-.48l.89-2.55c.05-.15.07-.32.04-.48l-.21-1.25-.4-2.42c1.12-1.1,1.7-2.49,1.47-3.88-.03-.19-.08-.37-.13-.54,3.63-2.96,5.63-7.7,4.82-12.64-.31-1.91-1.02-3.65-2.02-5.17Z"/>
            <path class="cls-4" d="M29.82,107.11c-.23-.22-.46-.44-.71-.64-.07-.06-.13-.12-.2-.17-.62-.51-1.29-.96-2-1.35-.06-.04-.13-.07-.19-.1-.3-.16-.61-.31-.93-.45-.07-.03-.13-.06-.2-.09-.76-.32-1.55-.56-2.38-.74-.07-.01-.14-.03-.2-.04-.36-.07-.72-.12-1.08-.16-.07,0-.14-.02-.21-.02-.43-.04-.86-.07-1.3-.07s-.87.03-1.3.07c-.07,0-.13.02-.2.02-.37.04-.73.1-1.09.17-.07.01-.13.02-.19.04-.82.17-1.61.42-2.37.74-.07.03-.14.06-.22.09-.31.14-.61.28-.91.44-.07.04-.14.07-.21.11-.1.05-.19.12-.28.17,1.83.78,3.81,1.22,5.87,1.25.29-.04.6-.06.91-.06,2.44,0,4.41,1.27,4.41,2.83s-1.98,2.82-4.41,2.82c-1.65,0-3.06-.59-3.82-1.44-2.37-.3-4.65-1.03-6.72-2.15-.2.25-.4.51-.59.78-.04.06-.08.12-.12.19-.19.29-.38.59-.55.9-.03.05-.06.1-.08.15-.19.35-.37.71-.53,1.08-.69,1.63-1.08,3.42-1.08,5.29,0,1.31.2,2.57.55,3.77.98,3.37,3.25,6.2,6.24,7.92-.03.18-.05.37-.05.56,0,1.03.42,1.99,1.15,2.78,1.21,1.33,3.26,2.2,5.59,2.2,3.72,0,6.74-2.23,6.74-4.98,0-.19-.02-.37-.04-.56,4.05-2.33,6.78-6.68,6.78-11.69,0-1.93-.41-3.76-1.14-5.42-.13-.3-.27-.59-.42-.88-.07-.12-.14-.24-.2-.36-.13-.23-.27-.46-.41-.68-.07-.11-.14-.21-.21-.32-.21-.3-.42-.59-.66-.88-.01-.02-.02-.03-.04-.05-.25-.31-.52-.6-.8-.88-.06-.07-.13-.13-.2-.19Z"/>
            <path class="cls-5" d="M23.64,109.06c0-.06-.04-.13-.06-.19-.27.07-.53.13-.8.19h.87Z"/>
            <path class="cls-5" d="M10.4,107.32l.04.02c.44.24.89.45,1.35.65-.45-.2-.9-.41-1.35-.65l-.04-.02Z"/>
            <path class="cls-5" d="M15.05,109.06h.02s-.06-.01-.09-.02c.02,0,.05.01.07.02Z"/>
            <path class="cls-5" d="M20.67,107.5c-.09,0-.17-.02-.26-.02-.06,0-.13.01-.19.01.21,0,.39,0,.45,0Z"/>
            <path class="cls-8" d="M25.47,137.08l-.53.96.52-.96h0Z"/>
            <path class="cls-4" d="M8.84,107.72c-.56-.35-1.1-.73-1.62-1.14-.29.09-.59.14-.89.14-.43,0-.88-.09-1.3-.29-1.53-.72-2.18-2.53-1.47-4.06.52-1.11,1.62-1.76,2.77-1.76.43,0,.88.09,1.3.29.38.18.71.43.97.72.75.76,1.59,1.44,2.5,2.05,0-.55-.08-1.1-.27-1.64-.43-1.2-1.31-2.16-2.47-2.71-.64-.3-1.33-.45-2.03-.45-1.85,0-3.55,1.08-4.33,2.75-1.12,2.39-.09,5.25,2.3,6.37.64.3,1.33.45,2.03.45.91,0,1.77-.28,2.52-.74Z"/>
            <path class="cls-6" d="M24.05,107.54s-.06-.04-.09-.06c.05.04.1.08.14.13-.02-.02-.03-.04-.05-.06Z"/>
            <path class="cls-6" d="M24.68,108.46s.02.05.03.07c0,0,0,0,0,0,0-.02-.03-.05-.04-.07Z"/>
            <path class="cls-6" d="M23.48,107.12s.04.03.06.04c-.02-.01-.03-.03-.05-.04,0,0,0,0,0,0Z"/>
            <path class="cls-3" d="M2.21,92.96c-.06-.59-.09-1.2-.09-1.81,0-9.6,7.78-17.38,17.38-17.38,2.66,0,5.17.6,7.43,1.66"/>
            <path class="cls-3" d="M23.48,108.07c-1.28.3-2.61.46-3.98.46-5.55,0-10.5-2.61-13.68-6.66"/>
            <path class="cls-1" d="M30.83,103.08l.99.99c.18-.18.35-.35.53-.53l-.99-.99c-.17.18-.35.36-.53.53Z"/>
          </g>
          <path class="cls-4" d="M24.39,151.57l-.16-.17c-.07-.06-.11-.16-.11-.27,0,.11.04.2.11.27l.16.17Z"/>
          <path class="cls-4" d="M24.73,152.08c.07.17.1.35.1.53,0-.18-.03-.36-.1-.53Z"/>
          <path class="cls-4" d="M25.16,143.85s0,.02-.01.03c0,0,0-.02.01-.03Z"/>
          <path class="cls-4" d="M22.96,150.12h0s.01,0,.02,0c0,0-.01,0-.02,0Z"/>
          <path class="cls-4" d="M25.21,142.51s0,0,0,0c0,0,0,0,0,0-.07-.17-.17-.34-.3-.47h-.01s0-.01,0-.01c.14.14.24.31.32.49Z"/>
          <polygon class="cls-4" points="24.42 141.55 24.26 141.4 24.26 141.4 24.37 141.51 24.42 141.55"/>
          <polygon class="cls-4" points="24.8 147.15 24.81 147.15 24.88 147.07 24.88 147.07 24.86 147.09 24.8 147.15"/>
        </g>
        <path class="cls-7" d="M170.01,92.11c0-.29.23-.51.51-.51s.51.22.51.51-.23.52-.51.52-.51-.23-.51-.52Z"/>
        <path class="cls-7" d="M175.29,92.11c0-.29.23-.51.51-.51s.51.22.51.51-.23.52-.51.52-.51-.23-.51-.52Z"/>
        <path class="cls-7" d="M180.58,92.11c0-.29.23-.51.51-.51s.51.22.51.51-.23.52-.51.52-.51-.23-.51-.52Z"/>
        <g>
          <path class="cls-2" d="M85.73,75.91c.2-.04.41-.06.62-.08,2.88-.18,5.36,2.02,5.53,4.9.04.6-.03,1.18-.18,1.73"/>
          <path class="cls-2" d="M86.18,78.97c.1-.02.21-.03.32-.04,1.46-.09,2.71,1.02,2.8,2.48.02.3-.01.6-.09.87"/>
          <path class="cls-2" d="M86.2,73.28c.27-.05.55-.08.83-.1,3.83-.23,7.12,2.68,7.35,6.51.05.8-.04,1.57-.24,2.3"/>
        </g>
        <g>
          <path class="cls-7" d="M64.13,84.84v6.9h-.88v-3.72h-8.06v3.72h-.88v-6.9c0-3.48,1.95-5.23,4.91-5.23s4.91,1.76,4.91,5.23ZM63.25,87.23v-2.48c0-2.91-1.53-4.34-4.03-4.34s-4.03,1.43-4.03,4.34v2.48h8.06Z"/>
          <path class="cls-7" d="M68.28,89.38v-10.41h.86v10.31c0,1.15.52,1.79,1.58,1.79.34,0,.65-.09.86-.17l.07.72c-.31.12-.69.19-1.03.19-1.53,0-2.34-.93-2.34-2.43Z"/>
          <path class="cls-7" d="M73.73,89.38v-10.41h.86v10.31c0,1.15.52,1.79,1.58,1.79.34,0,.65-.09.86-.17l.07.72c-.31.12-.69.19-1.03.19-1.53,0-2.34-.93-2.34-2.43Z"/>
          <path class="cls-7" d="M78.04,87.25c0-2.67,1.91-4.56,4.49-4.56s4.49,1.89,4.49,4.56-1.91,4.56-4.49,4.56-4.49-1.89-4.49-4.56ZM86.15,87.25c0-2.25-1.55-3.79-3.62-3.79s-3.62,1.53-3.62,3.79,1.55,3.79,3.62,3.79,3.62-1.53,3.62-3.79Z"/>
        </g>
        <g>
          <path class="cls-7" d="M109.91,88.56c0,2.03-1.48,3.18-4.44,3.18h-5.37v-12.05h5.03c2.58,0,4.15,1.08,4.15,3.08,0,1.43-.81,2.36-2.01,2.75,1.7.33,2.65,1.36,2.65,3.03ZM100.98,80.45v4.8h4.11c2.08,0,3.29-.81,3.29-2.41s-1.21-2.39-3.29-2.39h-4.11ZM109.03,88.49c0-1.72-1.26-2.48-3.56-2.48h-4.49v4.98h4.49c2.31,0,3.56-.76,3.56-2.5Z"/>
          <path class="cls-7" d="M121.08,82.76v8.99h-.84v-2.12c-.71,1.39-2.07,2.19-3.68,2.19-2.53,0-4.44-1.88-4.44-4.56s1.91-4.56,4.44-4.56c1.6,0,2.94.79,3.67,2.15v-2.08h.86ZM120.22,87.25c0-2.25-1.55-3.79-3.62-3.79s-3.62,1.53-3.62,3.79,1.55,3.79,3.62,3.79,3.62-1.53,3.62-3.79Z"/>
          <path class="cls-7" d="M124.77,79.88c0-.38.31-.71.71-.71s.71.31.71.69-.31.71-.71.71-.71-.31-.71-.69ZM125.04,82.76h.86v8.99h-.86v-8.99Z"/>
          <path class="cls-7" d="M129.86,89.38v-10.41h.86v10.31c0,1.15.52,1.79,1.58,1.79.34,0,.65-.09.86-.17l.07.72c-.31.12-.69.19-1.03.19-1.53,0-2.34-.93-2.34-2.43Z"/>
          <path class="cls-7" d="M135.32,89.38v-10.41h.86v10.31c0,1.15.52,1.79,1.58,1.79.34,0,.65-.09.86-.17l.07.72c-.31.12-.69.19-1.03.19-1.53,0-2.34-.93-2.34-2.43Z"/>
          <path class="cls-7" d="M147.16,89.78l.5.57c-.79.96-2.01,1.46-3.39,1.46-2.72,0-4.65-1.89-4.65-4.56s1.82-4.56,4.37-4.56c2.39,0,4.1,1.79,4.22,4.18l-7.59,1.48c.43,1.65,1.82,2.69,3.67,2.69,1.15,0,2.19-.41,2.87-1.26ZM140.47,87.18c0,.17.02.36.03.53l6.85-1.34c-.24-1.6-1.51-2.93-3.36-2.93-2.07,0-3.53,1.55-3.53,3.74Z"/>
          <path class="cls-7" d="M159.08,82.76v8.99h-.83v-1.93c-.59,1.26-1.81,2-3.39,2-2.29,0-3.75-1.29-3.75-3.8v-5.25h.86v5.18c0,2.03,1.08,3.1,2.96,3.1,2.03,0,3.29-1.36,3.29-3.49v-4.79h.86Z"/>
          <path class="cls-7" d="M167.31,82.69v.84c-.07,0-.14-.02-.21-.02-2,0-3.18,1.33-3.18,3.55v4.68h-.86v-8.99h.83v1.96c.55-1.31,1.74-2.03,3.43-2.03Z"/>
        </g>
      </g>
    </g>
  </g>
</svg>